<svg id="visual" viewBox="0 0 5000 750" width="5000" height="750" xmlns="http://www.w3.org/2000/svg" xmlns:xlink="http://www.w3.org/1999/xlink" version="1.1"><rect x="0" y="0" width="5000" height="750" fill="#222"></rect><path d="M0 462L36.2 491.5C72.3 521 144.7 580 217.2 625.5C289.7 671 362.3 703 434.8 679.8C507.3 656.7 579.7 578.3 652.2 545.2C724.7 512 797.3 524 869.8 556.8C942.3 589.7 1014.7 643.3 1087 638.7C1159.3 634 1231.7 571 1304.2 545.7C1376.7 520.3 1449.3 532.7 1521.8 569.7C1594.3 606.7 1666.7 668.3 1739.2 653.5C1811.7 638.7 1884.3 547.3 1956.8 535C2029.3 522.7 2101.7 589.3 2174 635.7C2246.3 682 2318.7 708 2391.2 675.7C2463.7 643.3 2536.3 552.7 2608.8 510.5C2681.3 468.3 2753.7 474.7 2826 502.2C2898.3 529.7 2970.7 578.3 3043.2 580.3C3115.7 582.3 3188.3 537.7 3260.8 537.8C3333.3 538 3405.7 583 3478.2 625.5C3550.7 668 3623.3 708 3695.8 708.7C3768.3 709.3 3840.7 670.7 3913 637.7C3985.3 604.7 4057.7 577.3 4130.2 561.5C4202.7 545.7 4275.3 541.3 4347.8 540.2C4420.3 539 4492.7 541 4565.2 542.2C4637.7 543.3 4710.3 543.7 4782.8 540.7C4855.3 537.7 4927.7 531.3 4963.8 528.2L5000 525L5000 751L4963.8 751C4927.7 751 4855.3 751 4782.8 751C4710.3 751 4637.7 751 4565.2 751C4492.7 751 4420.3 751 4347.8 751C4275.3 751 4202.7 751 4130.2 751C4057.7 751 3985.3 751 3913 751C3840.7 751 3768.3 751 3695.8 751C3623.3 751 3550.7 751 3478.2 751C3405.7 751 3333.3 751 3260.8 751C3188.3 751 3115.7 751 3043.2 751C2970.7 751 2898.3 751 2826 751C2753.7 751 2681.3 751 2608.8 751C2536.3 751 2463.7 751 2391.2 751C2318.7 751 2246.3 751 2174 751C2101.7 751 2029.3 751 1956.8 751C1884.3 751 1811.7 751 1739.2 751C1666.7 751 1594.3 751 1521.8 751C1449.3 751 1376.7 751 1304.2 751C1231.7 751 1159.3 751 1087 751C1014.7 751 942.3 751 869.8 751C797.3 751 724.7 751 652.2 751C579.7 751 507.3 751 434.8 751C362.3 751 289.7 751 217.2 751C144.7 751 72.3 751 36.2 751L0 751Z" fill="#111111"></path><path d="M0 502L36.2 543.2C72.3 584.3 144.7 666.7 217.2 699.3C289.7 732 362.3 715 434.8 680.2C507.3 645.3 579.7 592.7 652.2 592.8C724.7 593 797.3 646 869.8 651.3C942.3 656.7 1014.7 614.3 1087 608.5C1159.3 602.7 1231.7 633.3 1304.2 640C1376.7 646.7 1449.3 629.3 1521.8 636.5C1594.3 643.7 1666.7 675.3 1739.2 666.3C1811.7 657.3 1884.3 607.7 1956.8 595.8C2029.3 584 2101.7 610 2174 630.8C2246.3 651.7 2318.7 667.3 2391.2 671C2463.7 674.7 2536.3 666.3 2608.8 667.2C2681.3 668 2753.7 678 2826 656.7C2898.3 635.3 2970.7 582.7 3043.2 586.8C3115.7 591 3188.3 652 3260.8 662.2C3333.3 672.3 3405.7 631.7 3478.2 628C3550.7 624.3 3623.3 657.7 3695.8 675C3768.3 692.3 3840.7 693.7 3913 664.2C3985.3 634.7 4057.7 574.3 4130.2 543.2C4202.7 512 4275.3 510 4347.8 508.8C4420.3 507.7 4492.7 507.3 4565.2 543C4637.7 578.7 4710.3 650.3 4782.8 663.2C4855.3 676 4927.7 630 4963.8 607L5000 584L5000 751L4963.8 751C4927.7 751 4855.3 751 4782.8 751C4710.3 751 4637.7 751 4565.2 751C4492.7 751 4420.3 751 4347.8 751C4275.3 751 4202.7 751 4130.2 751C4057.7 751 3985.3 751 3913 751C3840.7 751 3768.3 751 3695.8 751C3623.3 751 3550.7 751 3478.2 751C3405.7 751 3333.3 751 3260.8 751C3188.3 751 3115.7 751 3043.2 751C2970.7 751 2898.3 751 2826 751C2753.7 751 2681.3 751 2608.8 751C2536.3 751 2463.7 751 2391.2 751C2318.7 751 2246.3 751 2174 751C2101.7 751 2029.3 751 1956.8 751C1884.3 751 1811.7 751 1739.2 751C1666.7 751 1594.3 751 1521.8 751C1449.3 751 1376.7 751 1304.2 751C1231.7 751 1159.3 751 1087 751C1014.7 751 942.3 751 869.8 751C797.3 751 724.7 751 652.2 751C579.7 751 507.3 751 434.8 751C362.3 751 289.7 751 217.2 751C144.7 751 72.3 751 36.2 751L0 751Z" fill="#151515"></path><path d="M0 650L36.2 640.7C72.3 631.3 144.7 612.7 217.2 613.5C289.7 614.3 362.3 634.7 434.8 630.7C507.3 626.7 579.7 598.3 652.2 589.5C724.7 580.7 797.3 591.3 869.8 609.3C942.3 627.3 1014.7 652.7 1087 676.3C1159.3 700 1231.7 722 1304.2 701.3C1376.7 680.7 1449.3 617.3 1521.8 589.7C1594.3 562 1666.7 570 1739.2 575.3C1811.7 580.7 1884.3 583.3 1956.8 592.8C2029.3 602.3 2101.7 618.7 2174 641.5C2246.3 664.3 2318.7 693.7 2391.2 699.3C2463.7 705 2536.3 687 2608.8 669.5C2681.3 652 2753.7 635 2826 644C2898.3 653 2970.7 688 3043.2 676.2C3115.7 664.3 3188.3 605.7 3260.8 589.5C3333.3 573.3 3405.7 599.7 3478.2 612.2C3550.7 624.7 3623.3 623.3 3695.8 637.7C3768.3 652 3840.7 682 3913 669.7C3985.3 657.3 4057.7 602.7 4130.2 597C4202.7 591.3 4275.3 634.7 4347.8 633.2C4420.3 631.7 4492.7 585.3 4565.2 595.8C4637.7 606.3 4710.3 673.7 4782.8 694.8C4855.3 716 4927.7 691 4963.8 678.5L5000 666L5000 751L4963.8 751C4927.7 751 4855.3 751 4782.8 751C4710.3 751 4637.7 751 4565.2 751C4492.7 751 4420.3 751 4347.8 751C4275.3 751 4202.7 751 4130.2 751C4057.7 751 3985.3 751 3913 751C3840.7 751 3768.3 751 3695.8 751C3623.3 751 3550.7 751 3478.2 751C3405.7 751 3333.3 751 3260.8 751C3188.3 751 3115.7 751 3043.2 751C2970.7 751 2898.3 751 2826 751C2753.7 751 2681.3 751 2608.8 751C2536.3 751 2463.7 751 2391.2 751C2318.7 751 2246.3 751 2174 751C2101.7 751 2029.3 751 1956.8 751C1884.3 751 1811.7 751 1739.2 751C1666.7 751 1594.3 751 1521.8 751C1449.3 751 1376.7 751 1304.2 751C1231.7 751 1159.3 751 1087 751C1014.7 751 942.3 751 869.8 751C797.3 751 724.7 751 652.2 751C579.7 751 507.3 751 434.8 751C362.3 751 289.7 751 217.2 751C144.7 751 72.3 751 36.2 751L0 751Z" fill="#181818"></path><path d="M0 598L36.2 615.3C72.3 632.7 144.7 667.3 217.2 680.8C289.7 694.3 362.3 686.7 434.8 666C507.3 645.3 579.7 611.7 652.2 605.7C724.7 599.7 797.3 621.3 869.8 640.3C942.3 659.3 1014.7 675.7 1087 686.8C1159.3 698 1231.7 704 1304.2 691.8C1376.7 679.7 1449.3 649.3 1521.8 649.5C1594.3 649.7 1666.7 680.3 1739.2 673.8C1811.7 667.3 1884.3 623.7 1956.8 626C2029.3 628.3 2101.7 676.7 2174 678C2246.3 679.3 2318.7 633.7 2391.2 625C2463.7 616.3 2536.3 644.7 2608.8 654C2681.3 663.3 2753.7 653.7 2826 642.5C2898.3 631.3 2970.7 618.7 3043.2 635.2C3115.7 651.7 3188.3 697.3 3260.8 703.5C3333.3 709.7 3405.7 676.3 3478.2 655.2C3550.7 634 3623.3 625 3695.8 618C3768.3 611 3840.7 606 3913 605.8C3985.3 605.7 4057.7 610.3 4130.2 616.3C4202.7 622.3 4275.3 629.7 4347.8 649.2C4420.3 668.7 4492.7 700.3 4565.2 716.3C4637.7 732.3 4710.3 732.7 4782.8 709.5C4855.3 686.3 4927.7 639.7 4963.8 616.3L5000 593L5000 751L4963.8 751C4927.7 751 4855.3 751 4782.8 751C4710.3 751 4637.7 751 4565.2 751C4492.7 751 4420.3 751 4347.8 751C4275.3 751 4202.7 751 4130.2 751C4057.7 751 3985.3 751 3913 751C3840.7 751 3768.3 751 3695.8 751C3623.3 751 3550.7 751 3478.2 751C3405.7 751 3333.3 751 3260.8 751C3188.3 751 3115.7 751 3043.2 751C2970.7 751 2898.3 751 2826 751C2753.7 751 2681.3 751 2608.8 751C2536.3 751 2463.7 751 2391.2 751C2318.7 751 2246.3 751 2174 751C2101.7 751 2029.3 751 1956.8 751C1884.3 751 1811.7 751 1739.2 751C1666.7 751 1594.3 751 1521.8 751C1449.3 751 1376.7 751 1304.2 751C1231.7 751 1159.3 751 1087 751C1014.7 751 942.3 751 869.8 751C797.3 751 724.7 751 652.2 751C579.7 751 507.3 751 434.8 751C362.3 751 289.7 751 217.2 751C144.7 751 72.3 751 36.2 751L0 751Z" fill="#1c1c1c"></path><path d="M0 628L36.2 627.8C72.3 627.7 144.7 627.3 217.2 646.8C289.7 666.3 362.3 705.7 434.8 707.5C507.3 709.3 579.7 673.7 652.2 666C724.7 658.3 797.3 678.7 869.8 695C942.3 711.3 1014.7 723.7 1087 730.2C1159.3 736.7 1231.7 737.3 1304.2 728.8C1376.7 720.3 1449.3 702.7 1521.8 702.5C1594.3 702.3 1666.7 719.7 1739.2 727.3C1811.7 735 1884.3 733 1956.8 734.5C2029.3 736 2101.7 741 2174 731C2246.3 721 2318.7 696 2391.2 688.5C2463.7 681 2536.3 691 2608.8 683.5C2681.3 676 2753.7 651 2826 653.5C2898.3 656 2970.7 686 3043.2 694.8C3115.7 703.7 3188.3 691.3 3260.8 680.7C3333.3 670 3405.7 661 3478.2 662.3C3550.7 663.7 3623.3 675.3 3695.8 684.5C3768.3 693.7 3840.7 700.3 3913 696.8C3985.3 693.3 4057.7 679.7 4130.2 671.2C4202.7 662.7 4275.3 659.3 4347.8 669C4420.3 678.7 4492.7 701.3 4565.2 706.3C4637.7 711.3 4710.3 698.7 4782.8 694C4855.3 689.3 4927.7 692.7 4963.8 694.3L5000 696L5000 751L4963.8 751C4927.7 751 4855.3 751 4782.8 751C4710.3 751 4637.7 751 4565.2 751C4492.7 751 4420.3 751 4347.8 751C4275.3 751 4202.7 751 4130.2 751C4057.7 751 3985.3 751 3913 751C3840.7 751 3768.3 751 3695.8 751C3623.3 751 3550.7 751 3478.2 751C3405.7 751 3333.3 751 3260.8 751C3188.3 751 3115.7 751 3043.2 751C2970.7 751 2898.3 751 2826 751C2753.7 751 2681.3 751 2608.8 751C2536.3 751 2463.7 751 2391.2 751C2318.7 751 2246.3 751 2174 751C2101.7 751 2029.3 751 1956.8 751C1884.3 751 1811.7 751 1739.2 751C1666.7 751 1594.3 751 1521.8 751C1449.3 751 1376.7 751 1304.2 751C1231.7 751 1159.3 751 1087 751C1014.7 751 942.3 751 869.8 751C797.3 751 724.7 751 652.2 751C579.7 751 507.3 751 434.8 751C362.3 751 289.7 751 217.2 751C144.7 751 72.3 751 36.2 751L0 751Z" fill="#1f1f1f"></path><path d="M0 717L36.2 711.7C72.3 706.3 144.7 695.7 217.2 690.5C289.7 685.3 362.3 685.7 434.8 682.5C507.3 679.3 579.7 672.7 652.2 680.5C724.7 688.3 797.3 710.7 869.8 722.3C942.3 734 1014.7 735 1087 734.8C1159.3 734.7 1231.7 733.3 1304.2 731.8C1376.7 730.3 1449.3 728.7 1521.8 722.2C1594.3 715.7 1666.7 704.3 1739.2 697.5C1811.7 690.7 1884.3 688.3 1956.8 689.7C2029.3 691 2101.7 696 2174 699C2246.3 702 2318.7 703 2391.2 709C2463.7 715 2536.3 726 2608.8 728.7C2681.3 731.3 2753.7 725.7 2826 713.8C2898.3 702 2970.7 684 3043.2 687.2C3115.7 690.3 3188.3 714.7 3260.8 725.2C3333.3 735.7 3405.7 732.3 3478.2 729C3550.7 725.7 3623.3 722.3 3695.8 712.3C3768.3 702.3 3840.7 685.7 3913 680.2C3985.3 674.7 4057.7 680.3 4130.2 692.7C4202.7 705 4275.3 724 4347.8 727.2C4420.3 730.3 4492.7 717.7 4565.2 715.2C4637.7 712.7 4710.3 720.3 4782.8 726.8C4855.3 733.3 4927.7 738.7 4963.8 741.3L5000 744L5000 751L4963.8 751C4927.7 751 4855.3 751 4782.8 751C4710.3 751 4637.7 751 4565.2 751C4492.7 751 4420.3 751 4347.8 751C4275.3 751 4202.7 751 4130.2 751C4057.7 751 3985.3 751 3913 751C3840.7 751 3768.3 751 3695.8 751C3623.3 751 3550.7 751 3478.2 751C3405.7 751 3333.3 751 3260.8 751C3188.3 751 3115.7 751 3043.2 751C2970.7 751 2898.3 751 2826 751C2753.7 751 2681.3 751 2608.8 751C2536.3 751 2463.7 751 2391.2 751C2318.7 751 2246.3 751 2174 751C2101.7 751 2029.3 751 1956.8 751C1884.3 751 1811.7 751 1739.2 751C1666.7 751 1594.3 751 1521.8 751C1449.3 751 1376.7 751 1304.2 751C1231.7 751 1159.3 751 1087 751C1014.7 751 942.3 751 869.8 751C797.3 751 724.7 751 652.2 751C579.7 751 507.3 751 434.8 751C362.3 751 289.7 751 217.2 751C144.7 751 72.3 751 36.2 751L0 751Z" fill="#222222"></path></svg>