<svg id="visual" viewBox="0 0 2500 800" width="2500" height="800" xmlns="http://www.w3.org/2000/svg" xmlns:xlink="http://www.w3.org/1999/xlink" version="1.1"><rect x="0" y="0" width="2500" height="800" fill="#007bff"></rect><path d="M0 621L26 628C52 635 104 649 156.2 665.8C208.3 682.7 260.7 702.3 312.8 711.3C365 720.3 417 718.7 469 696.2C521 673.7 573 630.3 625 637.5C677 644.7 729 702.3 781.2 715.5C833.3 728.7 885.7 697.3 937.8 678.2C990 659 1042 652 1094 644.7C1146 637.3 1198 629.7 1250 646C1302 662.3 1354 702.7 1406.2 682.2C1458.3 661.7 1510.7 580.3 1562.8 541C1615 501.7 1667 504.3 1719 502.7C1771 501 1823 495 1875 508C1927 521 1979 553 2031.2 570.5C2083.3 588 2135.7 591 2187.8 576.3C2240 561.7 2292 529.3 2344 534C2396 538.7 2448 580.3 2474 601.2L2500 622L2500 801L2474 801C2448 801 2396 801 2344 801C2292 801 2240 801 2187.8 801C2135.7 801 2083.3 801 2031.2 801C1979 801 1927 801 1875 801C1823 801 1771 801 1719 801C1667 801 1615 801 1562.8 801C1510.7 801 1458.3 801 1406.2 801C1354 801 1302 801 1250 801C1198 801 1146 801 1094 801C1042 801 990 801 937.8 801C885.7 801 833.3 801 781.2 801C729 801 677 801 625 801C573 801 521 801 469 801C417 801 365 801 312.8 801C260.7 801 208.3 801 156.2 801C104 801 52 801 26 801L0 801Z" fill="#0448ff"></path><path d="M0 681L26 659.5C52 638 104 595 156.2 577.3C208.3 559.7 260.7 567.3 312.8 572.8C365 578.3 417 581.7 469 593.2C521 604.7 573 624.3 625 624.5C677 624.7 729 605.3 781.2 584.5C833.3 563.7 885.7 541.3 937.8 573C990 604.7 1042 690.3 1094 694C1146 697.7 1198 619.3 1250 606.7C1302 594 1354 647 1406.2 678.8C1458.3 710.7 1510.7 721.3 1562.8 712.8C1615 704.3 1667 676.7 1719 667.7C1771 658.7 1823 668.3 1875 657.2C1927 646 1979 614 2031.2 626.5C2083.3 639 2135.7 696 2187.8 690.8C2240 685.7 2292 618.3 2344 613.2C2396 608 2448 665 2474 693.5L2500 722L2500 801L2474 801C2448 801 2396 801 2344 801C2292 801 2240 801 2187.8 801C2135.7 801 2083.3 801 2031.2 801C1979 801 1927 801 1875 801C1823 801 1771 801 1719 801C1667 801 1615 801 1562.8 801C1510.7 801 1458.3 801 1406.2 801C1354 801 1302 801 1250 801C1198 801 1146 801 1094 801C1042 801 990 801 937.8 801C885.7 801 833.3 801 781.2 801C729 801 677 801 625 801C573 801 521 801 469 801C417 801 365 801 312.8 801C260.7 801 208.3 801 156.2 801C104 801 52 801 26 801L0 801Z" fill="#0052ff"></path><path d="M0 683L26 688.3C52 693.7 104 704.3 156.2 695.7C208.3 687 260.7 659 312.8 644.2C365 629.3 417 627.7 469 643C521 658.3 573 690.7 625 716.5C677 742.3 729 761.7 781.2 746.5C833.3 731.3 885.7 681.7 937.8 656C990 630.3 1042 628.7 1094 649.2C1146 669.7 1198 712.3 1250 730.2C1302 748 1354 741 1406.2 730.3C1458.3 719.7 1510.7 705.3 1562.8 699.5C1615 693.7 1667 696.3 1719 702.3C1771 708.3 1823 717.7 1875 724.7C1927 731.7 1979 736.3 2031.2 743C2083.3 749.7 2135.7 758.3 2187.8 733.8C2240 709.3 2292 651.7 2344 636.8C2396 622 2448 650 2474 664L2500 678L2500 801L2474 801C2448 801 2396 801 2344 801C2292 801 2240 801 2187.8 801C2135.7 801 2083.3 801 2031.2 801C1979 801 1927 801 1875 801C1823 801 1771 801 1719 801C1667 801 1615 801 1562.8 801C1510.7 801 1458.3 801 1406.2 801C1354 801 1302 801 1250 801C1198 801 1146 801 1094 801C1042 801 990 801 937.8 801C885.7 801 833.3 801 781.2 801C729 801 677 801 625 801C573 801 521 801 469 801C417 801 365 801 312.8 801C260.7 801 208.3 801 156.2 801C104 801 52 801 26 801L0 801Z" fill="#005bff"></path><path d="M0 633L26 636.5C52 640 104 647 156.2 645.3C208.3 643.7 260.7 633.3 312.8 644.7C365 656 417 689 469 708.5C521 728 573 734 625 735.7C677 737.3 729 734.7 781.2 721.3C833.3 708 885.7 684 937.8 689C990 694 1042 728 1094 730.7C1146 733.3 1198 704.7 1250 696.2C1302 687.7 1354 699.3 1406.2 691.8C1458.3 684.3 1510.7 657.7 1562.8 644C1615 630.3 1667 629.7 1719 643.3C1771 657 1823 685 1875 689.5C1927 694 1979 675 2031.2 684.3C2083.3 693.7 2135.7 731.3 2187.8 732.3C2240 733.3 2292 697.7 2344 689.2C2396 680.7 2448 699.3 2474 708.7L2500 718L2500 801L2474 801C2448 801 2396 801 2344 801C2292 801 2240 801 2187.8 801C2135.7 801 2083.3 801 2031.2 801C1979 801 1927 801 1875 801C1823 801 1771 801 1719 801C1667 801 1615 801 1562.8 801C1510.7 801 1458.3 801 1406.2 801C1354 801 1302 801 1250 801C1198 801 1146 801 1094 801C1042 801 990 801 937.8 801C885.7 801 833.3 801 781.2 801C729 801 677 801 625 801C573 801 521 801 469 801C417 801 365 801 312.8 801C260.7 801 208.3 801 156.2 801C104 801 52 801 26 801L0 801Z" fill="#0064ff"></path><path d="M0 710L26 698.5C52 687 104 664 156.2 663.2C208.3 662.3 260.7 683.7 312.8 693.7C365 703.7 417 702.3 469 712.8C521 723.3 573 745.7 625 747.3C677 749 729 730 781.2 731.8C833.3 733.7 885.7 756.3 937.8 750.5C990 744.7 1042 710.3 1094 694.5C1146 678.7 1198 681.3 1250 690C1302 698.7 1354 713.3 1406.2 729.7C1458.3 746 1510.7 764 1562.8 767.3C1615 770.7 1667 759.3 1719 742.8C1771 726.3 1823 704.7 1875 690.2C1927 675.7 1979 668.3 2031.2 670.7C2083.3 673 2135.7 685 2187.8 702.5C2240 720 2292 743 2344 754.7C2396 766.3 2448 766.7 2474 766.8L2500 767L2500 801L2474 801C2448 801 2396 801 2344 801C2292 801 2240 801 2187.8 801C2135.7 801 2083.3 801 2031.2 801C1979 801 1927 801 1875 801C1823 801 1771 801 1719 801C1667 801 1615 801 1562.8 801C1510.7 801 1458.3 801 1406.2 801C1354 801 1302 801 1250 801C1198 801 1146 801 1094 801C1042 801 990 801 937.8 801C885.7 801 833.3 801 781.2 801C729 801 677 801 625 801C573 801 521 801 469 801C417 801 365 801 312.8 801C260.7 801 208.3 801 156.2 801C104 801 52 801 26 801L0 801Z" fill="#006cff"></path><path d="M0 686L26 695.7C52 705.3 104 724.7 156.2 729.7C208.3 734.7 260.7 725.3 312.8 716.8C365 708.3 417 700.7 469 697.3C521 694 573 695 625 704C677 713 729 730 781.2 735.5C833.3 741 885.7 735 937.8 740.2C990 745.3 1042 761.7 1094 760.5C1146 759.3 1198 740.7 1250 737.3C1302 734 1354 746 1406.2 756C1458.3 766 1510.7 774 1562.8 762.8C1615 751.7 1667 721.3 1719 712.2C1771 703 1823 715 1875 722.3C1927 729.7 1979 732.3 2031.2 725C2083.3 717.7 2135.7 700.3 2187.8 702.2C2240 704 2292 725 2344 725.5C2396 726 2448 706 2474 696L2500 686L2500 801L2474 801C2448 801 2396 801 2344 801C2292 801 2240 801 2187.8 801C2135.7 801 2083.3 801 2031.2 801C1979 801 1927 801 1875 801C1823 801 1771 801 1719 801C1667 801 1615 801 1562.8 801C1510.7 801 1458.3 801 1406.2 801C1354 801 1302 801 1250 801C1198 801 1146 801 1094 801C1042 801 990 801 937.8 801C885.7 801 833.3 801 781.2 801C729 801 677 801 625 801C573 801 521 801 469 801C417 801 365 801 312.8 801C260.7 801 208.3 801 156.2 801C104 801 52 801 26 801L0 801Z" fill="#0074ff"></path><path d="M0 783L26 776.7C52 770.3 104 757.7 156.2 750C208.3 742.3 260.7 739.7 312.8 742.3C365 745 417 753 469 753.8C521 754.7 573 748.3 625 743.2C677 738 729 734 781.2 736.5C833.3 739 885.7 748 937.8 748.5C990 749 1042 741 1094 744.5C1146 748 1198 763 1250 765.8C1302 768.7 1354 759.3 1406.2 755.8C1458.3 752.3 1510.7 754.7 1562.8 757.5C1615 760.3 1667 763.7 1719 769.2C1771 774.7 1823 782.3 1875 785.2C1927 788 1979 786 2031.2 775.5C2083.3 765 2135.7 746 2187.8 744.7C2240 743.3 2292 759.7 2344 766.3C2396 773 2448 770 2474 768.5L2500 767L2500 801L2474 801C2448 801 2396 801 2344 801C2292 801 2240 801 2187.8 801C2135.7 801 2083.3 801 2031.2 801C1979 801 1927 801 1875 801C1823 801 1771 801 1719 801C1667 801 1615 801 1562.8 801C1510.7 801 1458.3 801 1406.2 801C1354 801 1302 801 1250 801C1198 801 1146 801 1094 801C1042 801 990 801 937.8 801C885.7 801 833.3 801 781.2 801C729 801 677 801 625 801C573 801 521 801 469 801C417 801 365 801 312.8 801C260.7 801 208.3 801 156.2 801C104 801 52 801 26 801L0 801Z" fill="#007bff"></path></svg>